<svg width="25" height="23" viewBox="0 0 25 23" fill="red" xmlns="http://www.w3.org/2000/svg">
    <path d="M22.2265 2.85655C21.6645 2.26797 20.9972 1.80107 20.2628 1.48251C19.5284 1.16396 18.7412 1 17.9463 1C17.1513 1 16.3641 1.16396 15.6297 1.48251C14.8953 1.80107 14.228 2.26797 13.666 2.85655L12.4997 4.07749L11.3334 2.85655C10.1982 1.66822 8.65854 1.00062 7.05315 1.00062C5.44775 1.00062 3.90811 1.66822 2.77293 2.85655C1.63774 4.04489 1 5.65662 1 7.33718C1 9.01774 1.63774 10.6295 2.77293 11.8178L3.93926 13.0387L12.4997 22L21.0602 13.0387L22.2265 11.8178C22.7887 11.2295 23.2348 10.531 23.5391 9.76219C23.8434 8.99339 24 8.16936 24 7.33718C24 6.50499 23.8434 5.68096 23.5391 4.91216C23.2348 4.14336 22.7887 3.44486 22.2265 2.85655V2.85655Z" stroke="#263238" stroke-width="0" stroke-linecap="round" stroke-linejoin="round" />
</svg>
